<svg xmlns="http://www.w3.org/2000/svg" width="1024" height="1024" viewBox="0 0 1024 1024"><path fill="#fff" d="M0 0h1024v1024H0z"/><path fill="#0b9746" d="m349.746 212.793-.335 24.006c.72 11.027 1.504 20.134 3.881 31.013a158.93 158.93 0 0 0 50.142 84.413c36.75 32.028 88.877 46.363 133.176 63.97 93.325 37.093 158.617 116.631 165.74 218.095 2.048 29.172.667 53.628-3.576 82.809-1.209 10.481-7.469 43.508-11.873 52.605-1.836 8.066-8.209 27.591-11.243 35.738-.257 1.076-.489 1.551-.915 2.564-.199.683-.264 1.624-.921 2.043-.644-.563-.082-8.568.099-9.663l.099-.254c-.312-12.313-.617-22.724-2.63-34.9a164.58 164.58 0 0 0-65.098-106.773c-26.323-19.267-55.391-29.76-85.78-40.75-2.601-.941-5.818-2.343-8.388-3.032-92.765-24.894-167.588-100.12-186.71-194.916-14.908-70.082-1.484-128.927 20.475-195.856 1.345-3.701 2.451-7.328 3.857-11.112"/><path fill="#f8e01d" d="m385.892 393.77 1.256-1.304c5.882 10.742 12.19 19.533 19.195 29.484 23.841 33.866 52.065 61.361 86.981 83.816a263 263 0 0 0 24.507 14.122c14.11 7 28.653 12.867 42.856 20.059 59.006 29.88 115.766 73.59 134.412 140.036 3.506 12.502 2.903 24.489 3.675 37.116-1.209 10.481-7.469 43.508-11.873 52.605-.495-2.24.039-9.871.127-12.51.797-23.767-3.383-45.201-11.4-67.655-22.123-61.967-73.754-108.324-130.125-139.497-13.651-7.549-28.077-13.067-41.627-20.717-54.534-30.749-91.609-79.736-117.984-135.555"/><path fill="#329a62" d="m349.746 212.793-.335 24.006c-1.27-4.611 1.424-13.493-3.522-12.894 1.345-3.701 2.451-7.328 3.857-11.112"/><path fill="#b8de61" d="M381.584 383.307c1.951 3.011 3.374 5.44 5.173 8.501l.391.658-1.256 1.304c-2.27-4.026-2.921-6.243-4.308-10.463"/><path fill="#329a62" d="M674.02 800.132c1.281 2.419-.239 3.92 1.638 5.31-.257 1.076-.489 1.551-.915 2.564-.199.683-.264 1.624-.921 2.043-.644-.563-.082-8.568.099-9.663z"/><path fill="#689584" d="M674.743 808.006c-.199.683-.264 1.624-.921 2.043-.644-.563-.082-8.568.099-9.663.297 2.973-.31 5.453.822 7.62"/><path fill="#0b9746" d="M496.939 214.209a204.2 204.2 0 0 1 72.681 8.099 200.9 200.9 0 0 1 118.02 99.372c11.89-5.786 23.528-12.751 35.397-18.652 7.863-3.91 15.538-8.055 23.157-12.425-5.65 13.844-10.889 28.891-15.735 43.073-12.509 36.609-26.748 72.99-38.995 109.652-28.674-10.239-57.3-19.635-86.093-30.07a2534 2534 0 0 1-52.484-18.364c4.381-2.796 11.343-6.153 16.102-8.618 10.807-5.596 21.229-10.844 31.804-16.927a113.8 113.8 0 0 0-23.484-27.321c-43.886-37.028-101.967-38.117-140.06 7.576-30.606-20.201-50.325-44.622-60.488-80.109 35.249-34.985 70.949-51.517 120.178-55.286"/><path fill="#0b9746" d="M333.383 581.374c5.898 2.307 14.337 4.893 20.532 6.999l40.75 13.894c25.79 8.863 51.479 18.634 77.496 26.752-16.176 8.19-32.534 17.237-48.659 25.713 33.232 57.561 121.753 77.253 164.162 18.057 8.654 6.243 18.14 13.474 25.48 21.298 13.98 14.901 29.149 40.811 33.287 60.685-11.569 11.204-17.684 16.258-30.868 25.425a149 149 0 0 1-8.534 5.059c-11.474 6.408-23.19 12.209-35.662 16.434-34.63 11.733-75.167 12.391-110.317 2.279a205.47 205.47 0 0 1-108.472-75.986c-6.295-8.697-10.847-17.032-16.07-26.406-4.837 1.955-11.776 6.393-16.662 9.005a4244 4244 0 0 0-40.471 21.53c8.423-21.717 16.535-45.579 24.301-67.633z"/></svg>